<?xml version="1.0" encoding="UTF-8"?>
<svg version="1.1" xmlns="http://www.w3.org/2000/svg" width="500" height="500">
<path d="M0 0 C1.484375 2.02734375 1.484375 2.02734375 1.55859375 4.30859375 C0.0177101 8.20843018 -2.37173473 11.18693822 -4.953125 14.46484375 C-6.0417855 15.8791157 -7.12899724 17.29450389 -8.21484375 18.7109375 C-8.76446777 19.42491699 -9.3140918 20.13889648 -9.88037109 20.87451172 C-12.41290323 24.20862166 -14.84442492 27.61192036 -17.265625 31.02734375 C-17.69544678 31.63247803 -18.12526855 32.2376123 -18.56811523 32.86108398 C-19.55231239 34.2486373 -20.53425318 35.63779073 -21.515625 37.02734375 C-22.515625 35.02734375 -22.515625 35.02734375 -21.578125 31.65234375 C-18.61141034 20.33790785 -21.01537279 10.8982092 -26.203125 0.71484375 C-32.873322 -7.03700682 -41.88796016 -10.53015696 -51.828125 -11.78515625 C-64.441905 -12.63077279 -76.66049622 -9.0976437 -86.4140625 -1.015625 C-97.24809797 9.51634628 -101.66975322 23.70146689 -101.89648438 38.48828125 C-101.85326234 60.9061125 -97.19310269 79.80011569 -81.421875 96.37890625 C-79.11384573 98.48219099 -76.83334487 100.3375274 -74.33398438 102.19287109 C-73.61770874 102.72584808 -72.90143311 103.25882507 -72.16345215 103.80795288 C-71.61966919 104.21035187 -71.07588623 104.61275085 -70.515625 105.02734375 C-70.510273 98.78270267 -70.54414064 92.53991579 -70.61328125 86.2956543 C-70.63137243 84.17462449 -70.63902233 82.05347747 -70.63574219 79.93237305 C-70.63286532 76.87067191 -70.66838529 73.81136731 -70.7109375 70.75 C-70.70184357 69.8121315 -70.69274963 68.874263 -70.68338013 67.90797424 C-70.83870526 60.76185895 -73.09666915 56.5563045 -77.515625 51.02734375 C-78.216875 50.09921875 -78.918125 49.17109375 -79.640625 48.21484375 C-81.49154886 46.05543259 -83.50453379 44.03843496 -85.515625 42.02734375 C-76.605625 42.02734375 -67.695625 42.02734375 -58.515625 42.02734375 C-51.33674621 55.55267103 -44.35476895 69.16270707 -37.50732422 82.85864258 C-35.86208405 86.14688687 -34.21041011 89.43185205 -32.55859375 92.71679688 C-31.51002759 94.81100315 -30.4618357 96.90539688 -29.4140625 99 C-28.92046234 99.9800148 -28.42686218 100.9600296 -27.91830444 101.96974182 C-27.47008331 102.86926071 -27.02186218 103.7687796 -26.56005859 104.69555664 C-26.16386322 105.48652237 -25.76766785 106.2774881 -25.35946655 107.09242249 C-24.515625 109.02734375 -24.515625 109.02734375 -24.515625 111.02734375 C-17.13138511 108.71976878 -11.44573903 105.9801116 -5.515625 101.02734375 C-4.18706998 100.02100418 -2.85493913 99.01931927 -1.515625 98.02734375 C-2.59131063 104.07807542 -7.20009396 108.23686787 -11.91015625 111.87890625 C-17.99518661 116.02734375 -17.99518661 116.02734375 -20.515625 116.02734375 C-18.78798599 119.65307369 -17.05822803 123.27778901 -15.328125 126.90234375 C-14.84537109 127.91554688 -14.36261719 128.92875 -13.86523438 129.97265625 C-10.81548512 136.35870837 -7.70571913 142.71020428 -4.515625 149.02734375 C-0.49235774 141.40077688 2.85842209 133.53848851 6.13015747 125.57110596 C7.74954302 121.62957146 9.38251373 117.69367578 11.015625 113.7578125 C11.36589249 112.91331543 11.71615997 112.06881836 12.07704163 111.19873047 C16.66618937 100.15474058 21.35813325 89.15432352 26.046875 78.15234375 C26.47348419 77.15087311 26.90009338 76.14940247 27.33963013 75.11758423 C32.0412021 64.08174697 36.75906533 53.05306631 41.484375 42.02734375 C52.704375 42.02734375 63.924375 42.02734375 75.484375 42.02734375 C72.44113756 44.05616871 69.76172757 45.02820651 66.32421875 46.1484375 C64.13064813 47.00361404 64.13064813 47.00361404 62.484375 50.02734375 C62.18066935 52.31125859 62.18066935 52.31125859 62.22367859 54.88562012 C62.21659378 55.88669296 62.20950897 56.88776581 62.20220947 57.91917419 C62.20468689 59.01641312 62.20716431 60.11365204 62.2097168 61.24414062 C62.20460587 62.40043472 62.19949493 63.55672882 62.19422913 64.74806213 C62.18029729 68.58079158 62.18129247 72.41334195 62.18359375 76.24609375 C62.18069041 78.23156948 62.1777828 80.21704529 62.174187 82.20251989 C62.16309007 88.44541574 62.1626557 94.68825141 62.16870117 100.93115234 C62.17474469 107.3744867 62.16242097 113.81760289 62.1411311 120.26090002 C62.12352851 125.79133673 62.11751153 131.32170391 62.12076885 136.85216761 C62.12258373 140.15602628 62.11861781 143.4596942 62.10605431 146.76353455 C62.093769 150.4460449 62.10043411 154.12804517 62.11206055 157.81054688 C62.10441681 158.9077858 62.09677307 160.00502472 62.08889771 161.13551331 C62.09591202 162.13658615 62.10292633 163.137659 62.1101532 164.16906738 C62.10998546 165.03995247 62.10981771 165.91083755 62.10964489 166.8081131 C62.56568819 169.50889758 63.37191873 170.34434591 65.484375 172.02734375 C68.68370876 174.01313712 71.77888882 174.52205018 75.484375 175.02734375 C75.484375 175.35734375 75.484375 175.68734375 75.484375 176.02734375 C59.644375 176.02734375 43.804375 176.02734375 27.484375 176.02734375 C27.484375 175.69734375 27.484375 175.36734375 27.484375 175.02734375 C28.38929688 174.88039063 28.38929688 174.88039063 29.3125 174.73046875 C30.51132812 174.50617188 30.51132812 174.50617188 31.734375 174.27734375 C32.91773438 174.06851563 32.91773438 174.06851563 34.125 173.85546875 C37.361508 172.71947588 38.4569375 171.85675624 40.484375 169.02734375 C41.08164573 165.42293338 40.98877811 161.84573634 40.93847656 158.20019531 C40.93906067 157.09745773 40.93964478 155.99472015 40.94024658 154.85856628 C40.93745849 151.21138093 40.90633072 147.56501145 40.875 143.91796875 C40.86754023 141.3902023 40.86184605 138.86243006 40.85784912 136.33465576 C40.84413384 130.35995162 40.81260451 124.38559802 40.77245116 118.41103435 C40.72772483 111.60821043 40.70574431 104.80537244 40.68566942 98.00243807 C40.64387127 84.01057772 40.5735247 70.01897678 40.484375 56.02734375 C39.82313126 57.59939323 39.82313126 57.59939323 39.14852905 59.20320129 C23.66766773 96.00433942 23.66766773 96.00433942 16.109375 113.71484375 C11.51551682 124.48054383 6.9610509 135.26081688 2.48046875 146.07421875 C1.6483092 148.07854621 0.81611553 150.0828595 -0.01611328 152.0871582 C-1.61961133 155.94984811 -3.2141701 159.81607575 -4.80419922 163.68432617 C-5.52930293 165.43291246 -6.25470982 167.18137306 -6.98046875 168.9296875 C-7.30986954 169.7380304 -7.63927032 170.54637329 -7.97865295 171.37921143 C-10.28837049 176.9137165 -10.28837049 176.9137165 -12.515625 178.02734375 C-21.425625 160.20734375 -30.335625 142.38734375 -39.515625 124.02734375 C-46.775625 123.69734375 -54.035625 123.36734375 -61.515625 123.02734375 C-63.165625 122.69734375 -64.815625 122.36734375 -66.515625 122.02734375 C-66.44602039 126.66854843 -66.35771866 131.30891352 -66.25317383 135.94946289 C-66.2202223 137.52326015 -66.19210102 139.09716714 -66.16918945 140.67114258 C-66.30894322 157.37043895 -66.30894322 157.37043895 -59.515625 172.02734375 C-57.21636495 173.28756458 -54.99982491 174.13678152 -52.515625 175.02734375 C-52.515625 175.35734375 -52.515625 175.68734375 -52.515625 176.02734375 C-63.075625 176.02734375 -73.635625 176.02734375 -84.515625 176.02734375 C-80.515625 174.02734375 -80.515625 174.02734375 -78.453125 173.21484375 C-75.148137 171.18920594 -73.96426692 168.66091 -72.94824219 164.96142578 C-71.09596045 155.93553665 -71.2919668 147.0048182 -71.390625 137.83984375 C-71.4006791 136.20378155 -71.40980064 134.56771333 -71.41796875 132.93164062 C-71.43978008 128.96339059 -71.47417447 124.99543524 -71.515625 121.02734375 C-72.46606689 120.69831055 -73.41650879 120.36927734 -74.39575195 120.03027344 C-75.66104582 119.58680466 -76.9262597 119.14310762 -78.19140625 118.69921875 C-79.43059814 118.26706055 -80.66979004 117.83490234 -81.9465332 117.38964844 C-97.91876676 111.29312588 -111.08796364 98.79009447 -118.390625 83.40234375 C-125.88766964 65.46114038 -127.4166899 45.21783006 -119.921875 26.94921875 C-112.0185164 9.24695498 -97.56723512 -3.83268979 -79.515625 -10.97265625 C-51.90216228 -20.1585489 -23.03399221 -19.42003826 0 0 Z M-66.515625 70.02734375 C-66.515625 82.56734375 -66.515625 95.10734375 -66.515625 108.02734375 C-58.55129212 112.00951019 -53.32331228 114.38684119 -44.515625 114.02734375 C-46.08828313 108.74823313 -48.38845601 104.02323527 -50.8671875 99.12890625 C-51.28608246 98.29394623 -51.70497742 97.45898621 -52.13656616 96.59872437 C-53.46748936 93.94801942 -54.80396606 91.30016022 -56.140625 88.65234375 C-57.0472438 86.84914371 -57.9534978 85.04576021 -58.859375 83.2421875 C-61.07390684 78.83510416 -63.29342158 74.43056346 -65.515625 70.02734375 C-65.845625 70.02734375 -66.175625 70.02734375 -66.515625 70.02734375 Z " fill="#FFFFFF" transform="translate(280.515625,137.97265625)"/>
<path d="M0 0 C2.31 0 4.62 0 7 0 C8.65 3.96 10.3 7.92 12 12 C13.98 8.04 15.96 4.08 18 0 C20.31 0 22.62 0 25 0 C24.01 0.495 24.01 0.495 23 1 C23 6.28 23 11.56 23 17 C23.66 17.33 24.32 17.66 25 18 C22.03 18 19.06 18 16 18 C16.66 17.34 17.32 16.68 18 16 C18.24287489 13.55987051 18.24287489 13.55987051 18.125 10.875 C18.08375 9.26625 18.0425 7.6575 18 6 C16.35 9.96 14.7 13.92 13 18 C12.01 18 11.02 18 10 18 C8.35 14.04 6.7 10.08 5 6 C4.67 9.63 4.34 13.26 4 17 C4.99 17.33 5.98 17.66 7 18 C4.36 18 1.72 18 -1 18 C-0.34 17.34 0.32 16.68 1 16 C1.30599063 13.43083343 1.51087087 10.95241616 1.625 8.375 C1.66367187 7.66859375 1.70234375 6.9621875 1.7421875 6.234375 C1.83647724 4.49001476 1.91932891 2.74504309 2 1 C1.34 0.67 0.68 0.34 0 0 Z " fill="#FFFFFF" transform="translate(291,357)"/>
<path d="M0 0 C2.10353495 -0.0810206 4.20795952 -0.13919907 6.3125 -0.1875 C7.48425781 -0.22230469 8.65601563 -0.25710938 9.86328125 -0.29296875 C13 0 13 0 14.92578125 1.3515625 C16 3 16 3 15.875 5.5625 C15 8 15 8 12 10 C12.78375 10.94875 13.5675 11.8975 14.375 12.875 C14.81585938 13.40867187 15.25671875 13.94234375 15.7109375 14.4921875 C16.75250992 15.71051161 17.86660097 16.86660097 19 18 C16.375 18.4375 16.375 18.4375 13 18 C10.66877878 15.9050512 8.82671379 13.53926173 7 11 C6.67 12.98 6.34 14.96 6 17 C6.99 17.33 7.98 17.66 9 18 C6.03 18 3.06 18 0 18 C0.66 17.67 1.32 17.34 2 17 C2 11.72 2 6.44 2 1 C1.34 0.67 0.68 0.34 0 0 Z M6 1 C6 3.31 6 5.62 6 8 C7.65 7.67 9.3 7.34 11 7 C11.6814823 5.10820797 11.6814823 5.10820797 12 3 C11.34 2.34 10.68 1.68 10 1 C8.68 1 7.36 1 6 1 Z " fill="#FFFFFF" transform="translate(269,357)"/>
<path d="M0 0 C2.10353495 -0.0810206 4.20795952 -0.13919907 6.3125 -0.1875 C7.48425781 -0.22230469 8.65601563 -0.25710938 9.86328125 -0.29296875 C13 0 13 0 14.92578125 1.3515625 C16 3 16 3 15.875 5.5625 C15 8 15 8 12 10 C12.78375 10.94875 13.5675 11.8975 14.375 12.875 C14.81585938 13.40867187 15.25671875 13.94234375 15.7109375 14.4921875 C16.75250992 15.71051161 17.86660097 16.86660097 19 18 C16.375 18.4375 16.375 18.4375 13 18 C10.66877878 15.9050512 8.82671379 13.53926173 7 11 C6.67 12.98 6.34 14.96 6 17 C6.99 17.33 7.98 17.66 9 18 C6.03 18 3.06 18 0 18 C0.66 17.67 1.32 17.34 2 17 C2 11.72 2 6.44 2 1 C1.34 0.67 0.68 0.34 0 0 Z M6 1 C6 3.31 6 5.62 6 8 C7.65 7.67 9.3 7.34 11 7 C11.6814823 5.10820797 11.6814823 5.10820797 12 3 C11.34 2.34 10.68 1.68 10 1 C8.68 1 7.36 1 6 1 Z " fill="#FFFFFF" transform="translate(207,357)"/>
<path d="M0 0 C4.95 0 9.9 0 15 0 C14.67 1.32 14.34 2.64 14 4 C13.67 3.34 13.34 2.68 13 2 C10.67843403 1.59270772 8.3431213 1.25561323 6 1 C6 3.31 6 5.62 6 8 C7.65 7.34 9.3 6.68 11 6 C11.33 7.98 11.66 9.96 12 12 C11.34 12 10.68 12 10 12 C9.67 11.34 9.34 10.68 9 10 C8.01 9.67 7.02 9.34 6 9 C6.33 11.31 6.66 13.62 7 16 C12.01535052 15.67039784 12.01535052 15.67039784 16 13 C16 14.65 16 16.3 16 18 C10.72 18 5.44 18 0 18 C0.66 17.67 1.32 17.34 2 17 C2 11.72 2 6.44 2 1 C1.34 0.67 0.68 0.34 0 0 Z " fill="#FFFFFF" transform="translate(249,357)"/>
<path d="M0 0 C0.99 0 1.98 0 3 0 C3.39832031 1.04800781 3.79664063 2.09601563 4.20703125 3.17578125 C4.74177173 4.55484879 5.27695102 5.93374623 5.8125 7.3125 C6.07353516 8.00279297 6.33457031 8.69308594 6.60351562 9.40429688 C8.04307802 13.08317854 9.15586438 15.15586438 12 18 C9.03 18 6.06 18 3 18 C3.66 17.67 4.32 17.34 5 17 C4.67 15.68 4.34 14.36 4 13 C1.69 13.33 -0.62 13.66 -3 14 C-3.33 14.99 -3.66 15.98 -4 17 C-3.34 17.33 -2.68 17.66 -2 18 C-4.31 18 -6.62 18 -9 18 C-8.443125 17.2575 -7.88625 16.515 -7.3125 15.75 C-4.05628948 10.91820374 -2.12927263 5.39299378 0 0 Z M0 5 C-0.66 6.98 -1.32 8.96 -2 11 C-0.35 11 1.3 11 3 11 C2.34 9.02 1.68 7.04 1 5 C0.67 5 0.34 5 0 5 Z " fill="#FFFFFF" transform="translate(193,357)"/>
<path d="M0 0 C1.49080078 0.02707031 1.49080078 0.02707031 3.01171875 0.0546875 C3.77097656 0.07789063 4.53023437 0.10109375 5.3125 0.125 C5.3125 2.105 5.3125 4.085 5.3125 6.125 C4.590625 5.444375 3.86875 4.76375 3.125 4.0625 C0.51284872 1.87089453 0.51284872 1.87089453 -2.375 2.125 C-4.74189917 2.94526273 -4.74189917 2.94526273 -6.0625 4.75 C-6.93467908 8.06428051 -6.32766848 10.79612389 -5.6875 14.125 C-3.4068293 15.33797649 -3.4068293 15.33797649 -0.6875 16.125 C1.58088037 15.49140898 1.58088037 15.49140898 3.3125 14.125 C3.6425 13.465 3.9725 12.805 4.3125 12.125 C4.9725 12.125 5.6325 12.125 6.3125 12.125 C6.3125 14.105 6.3125 16.085 6.3125 18.125 C4.9925 18.125 3.6725 18.125 2.3125 18.125 C0.3634375 18.24875 0.3634375 18.24875 -1.625 18.375 C-4.71729556 18.35769238 -5.77018531 18.08101845 -8.625 16.5625 C-11.34111118 13.35255042 -11.6875 11.30455847 -11.6875 7.125 C-9.11757516 1.34266911 -6.16392477 -0.14503352 0 0 Z " fill="#FFFFFF" transform="translate(175.6875,356.875)"/>
<path d="M0 0 C4.95 0 9.9 0 15 0 C14.67 1.32 14.34 2.64 14 4 C13.34 3.34 12.68 2.68 12 2 C9.67724823 1.59952556 7.34260643 1.2602896 5 1 C5 3.31 5 5.62 5 8 C7.86724686 7.42655063 8.8614515 7.1385485 11 5 C11 7.31 11 9.62 11 12 C10.34 11.34 9.68 10.68 9 10 C6.93125966 9.3574765 6.93125966 9.3574765 5 9 C5.66 11.31 6.32 13.62 7 16 C9.31 16 11.62 16 14 16 C14.33 15.01 14.66 14.02 15 13 C15.33 13 15.66 13 16 13 C16 14.65 16 16.3 16 18 C10.39 18 4.78 18 -1 18 C-0.34 17.34 0.32 16.68 1 16 C1.30599063 13.43083343 1.51087087 10.95241616 1.625 8.375 C1.66367188 7.66859375 1.70234375 6.9621875 1.7421875 6.234375 C1.83647724 4.49001476 1.91932891 2.74504309 2 1 C1.34 0.67 0.68 0.34 0 0 Z " fill="#FFFFFF" transform="translate(229,357)"/>
<path d="M0 0 C2.64 0 5.28 0 8 0 C7.01 0.495 7.01 0.495 6 1 C6.33 5.95 6.66 10.9 7 16 C8.98 16 10.96 16 13 16 C13.66 15.01 14.32 14.02 15 13 C15.66 13.33 16.32 13.66 17 14 C16.67 15.32 16.34 16.64 16 18 C10.72 18 5.44 18 0 18 C0.66 17.67 1.32 17.34 2 17 C2 11.72 2 6.44 2 1 C1.34 0.67 0.68 0.34 0 0 Z " fill="#FFFFFF" transform="translate(320,357)"/>
</svg>
